<svg width="19" height="19" viewBox="0 0 19 19" fill="none" xmlns="http://www.w3.org/2000/svg">
<path opacity="0.6" fill-rule="evenodd" clip-rule="evenodd" d="M6.72365 12.5244C8.12766 13.6462 9.90791 14.1878 11.6988 14.038C13.4896 13.8882 15.1552 13.0584 16.3533 11.7189C17.5514 10.3795 18.1912 8.63211 18.1412 6.83568C18.0912 5.03926 17.3553 3.33016 16.0845 2.05941C14.8138 0.788654 13.1047 0.0527086 11.3082 0.00272307C9.51182 -0.0472625 7.76444 0.592506 6.42499 1.79063C5.08554 2.98876 4.25569 4.65429 4.10589 6.44515C3.95609 8.23602 4.4977 10.0163 5.61949 11.4203L0.248654 16.7901C0.171897 16.8616 0.110333 16.9478 0.0676329 17.0437C0.024933 17.1395 0.00197124 17.2429 0.000120419 17.3478C-0.0017304 17.4527 0.0175675 17.5569 0.0568602 17.6542C0.0961529 17.7515 0.154635 17.8399 0.228821 17.9141C0.303007 17.9882 0.391378 18.0467 0.488657 18.086C0.585937 18.1253 0.690134 18.1446 0.795033 18.1428C0.899931 18.1409 1.00338 18.1179 1.09921 18.0752C1.19505 18.0325 1.2813 17.971 1.35282 17.8942L6.72365 12.5244ZM14.9799 10.8974C15.7444 10.1327 16.2652 9.15863 16.4762 8.09815C16.6873 7.03768 16.5793 5.93843 16.1658 4.93933C15.7524 3.94023 15.052 3.08612 14.1532 2.48496C13.2545 1.88379 12.1977 1.56254 11.1164 1.56181C10.0351 1.56108 8.97789 1.88091 8.07832 2.48087C7.17876 3.08083 6.47724 3.93399 6.06242 4.93253C5.64759 5.93107 5.53809 7.03018 5.74775 8.09094C5.95741 9.15169 6.47681 10.1265 7.24032 10.8921L7.24553 10.8974L7.25074 10.9015C8.27668 11.9251 9.66696 12.4996 11.1162 12.4988C12.5654 12.498 13.9551 11.922 14.9799 10.8974Z" fill="white"/>
</svg>
